# xmcd
#
# Track frame offsets:
#	150
#	20391
#	56453
#	73598
#	91434
#	109217
#	123241
#	140983
#	158627
#	171101
#
# Disc length: 2518 seconds
#
# Revision: 1
# Processed by: cddbd v1.5.2PL0 Copyright (c) Steve Scherf et al.
# Submitted via: audiograbber 1.83.01
#
DISCID=8609d40a
DTITLE=T.M. and the B's - My way
DYEAR=2005
DGENRE=Blues
TTITLE0=War
TTITLE1=John Doe
TTITLE2=Riding in a summerday
TTITLE3=Blue sky
TTITLE4=I need somebody
TTITLE5=Get out of your cage
TTITLE6=G-F
TTITLE7=Dimenticare
TTITLE8=My mother told me
TTITLE9=My way
EXTD=
EXTT0=
EXTT1=
EXTT2=
EXTT3=
EXTT4=
EXTT5=
EXTT6=
EXTT7=
EXTT8=
EXTT9=
PLAYORDER=
